<svg xmlns="http://www.w3.org/2000/svg" xmlns:xlink="http://www.w3.org/1999/xlink" width="960" height="576" viewBox="0 0 720 432"><defs><symbol overflow="visible" id="b"><path d="M11.14-8.75H9.907l-1.61 7.11-2-7.11H5.095L3.156-1.64l-1.64-7.11H.266L2.516 0h1.218l1.954-7.188L7.703 0h1.219zm0 0"/></symbol><symbol overflow="visible" id="c"><path d="M6.422-.031v-.75c-.11.031-.156.031-.219.031-.344 0-.547-.188-.547-.5v-3.5c0-1.125-.812-1.719-2.36-1.719-1.515 0-2.452.594-2.515 2.047h1c.094-.781.547-1.125 1.485-1.125.89 0 1.406.344 1.406.938v.265c0 .422-.25.594-1.047.703-1.422.172-1.64.22-2.016.375C.875-2.969.5-2.406.5-1.625.5-.485 1.297.188 2.563.188a2.92 2.92 0 002.14-.938c.11.484.547.828 1.031.828.204 0 .36-.015.688-.11zm-1.75-2.14c0 .905-.922 1.468-1.89 1.468-.782 0-1.235-.266-1.235-.953 0-.657.437-.953 1.516-1.11 1.046-.14 1.265-.187 1.609-.343zm0 0"/></symbol><symbol overflow="visible" id="d"><path d="M6.031 0L3.453-4.11l2.188-2.17H4.359L1.688-3.625V-8.75H.703V0h.985v-2.453l.968-.953L4.781 0zm0 0"/></symbol><symbol overflow="visible" id="e"><path d="M5.781 0v-6.281h-1v3.468c0 1.282-.672 2.11-1.703 2.11-.797 0-1.297-.469-1.297-1.235V-6.28h-1v4.75c0 1.047.781 1.718 2 1.718.922 0 1.516-.328 2.11-1.156V0zm0 0"/></symbol><symbol overflow="visible" id="f"><path d="M5.844 0v-4.75c0-1.047-.782-1.719-1.985-1.719-.937 0-1.546.36-2.093 1.235v-1.047H.844V0h1v-3.469c0-1.281.687-2.125 1.703-2.125.797 0 1.297.485 1.297 1.235V0zm0 0"/></symbol><symbol overflow="visible" id="g"><path d="M6.125-3.094c0-2.172-1.047-3.375-2.86-3.375C1.5-6.469.438-5.25.438-3.14.438-1.03 1.484.188 3.281.188c1.766 0 2.844-1.22 2.844-3.282zm-1.047-.015c0 1.484-.703 2.359-1.797 2.359-1.125 0-1.812-.875-1.812-2.39 0-1.516.687-2.407 1.812-2.407s1.797.875 1.797 2.438zm0 0"/></symbol><symbol overflow="visible" id="h"><path d="M5.938 0v-8.75h-1v3.25c-.407-.625-1.079-.969-1.922-.969-1.641 0-2.704 1.266-2.704 3.266 0 2.125 1.047 3.39 2.735 3.39.86 0 1.469-.328 2-1.109V0zm-1-3.125c0 1.453-.688 2.375-1.75 2.375-1.094 0-1.829-.938-1.829-2.39 0-1.47.735-2.391 1.829-2.391 1.078 0 1.75.953 1.75 2.406zm0 0"/></symbol><symbol overflow="visible" id="i"><path d="M6.156-2.86c0-.906-.078-1.484-.25-1.953C5.5-5.843 4.531-6.468 3.36-6.468c-1.75 0-2.875 1.297-2.875 3.36 0 2.062 1.094 3.296 2.86 3.296C4.78.188 5.766-.64 6.03-1.905H5.016C4.734-1.078 4.172-.75 3.375-.75c-1.047 0-1.828-.672-1.844-2.11zm-1.062-.89s0 .047-.016.078H1.547c.078-1.11.797-1.875 1.797-1.875.984 0 1.75.813 1.75 1.797zm0 0"/></symbol><symbol overflow="visible" id="j"><path d="M5.719-2.156h-1c-.172 1-.688 1.406-1.532 1.406-1.109 0-1.765-.844-1.765-2.328 0-1.578.64-2.469 1.734-2.469.844 0 1.375.5 1.485 1.375h1.015c-.125-1.547-1.078-2.297-2.484-2.297-1.703 0-2.797 1.297-2.797 3.39C.375-1.061 1.453.189 3.156.189c1.5 0 2.453-.907 2.563-2.344zm0 0"/></symbol><symbol overflow="visible" id="k"><path d="M3.047 0v-.844c-.125.047-.281.047-.485.047-.421 0-.546-.11-.546-.562v-4.11h1.03v-.812h-1.03v-1.735h-1v1.735H.172v.812h.844v4.563c0 .625.437.984 1.218.984.235 0 .485-.015.813-.078zm0 0"/></symbol><symbol overflow="visible" id="l"><path d="M3.86-5.406v-1.032c-.172-.015-.266-.03-.391-.03-.656 0-1.14.39-1.719 1.327v-1.14H.844V0h1v-3.266c0-1.421.453-2.125 2.015-2.14zm0 0"/></symbol><symbol overflow="visible" id="m"><path d="M1.844 0v-6.281h-1V0zm.125-7.234v-1.25H.719v1.25zm0 0"/></symbol><symbol overflow="visible" id="E"><path d="M6.078-4.094c0-2.953-.937-4.422-2.781-4.422-1.828 0-2.781 1.5-2.781 4.36 0 2.86.953 4.343 2.78 4.343 1.798 0 2.782-1.484 2.782-4.28zM5-4.187C5-1.781 4.453-.704 3.281-.704c-1.125 0-1.687-1.125-1.687-3.453s.562-3.422 1.703-3.422C4.437-7.578 5-6.468 5-4.188zm0 0"/></symbol><symbol overflow="visible" id="F"><path d="M2.297 0v-1.25h-1.25V0zm0 0"/></symbol><symbol overflow="visible" id="G"><path d="M4.156 0v-8.516H3.47c-.375 1.313-.61 1.5-2.25 1.704v.75h1.89V0zm0 0"/></symbol><symbol overflow="visible" id="H"><path d="M4.438-6.14c0-1.173-.891-2.079-2.047-2.079A2.054 2.054 0 00.344-6.172a2.07 2.07 0 002.062 2.063c1.11 0 2.031-.938 2.031-2.032zm-.829-.016c0 .656-.546 1.203-1.203 1.203-.672 0-1.234-.563-1.234-1.219 0-.672.562-1.203 1.219-1.203a1.2 1.2 0 011.218 1.219zm4.485-2.36h-.781L2.563.234h.796zm2.219 6.72a2.047 2.047 0 00-4.094-.031c0 1.124.922 2.061 2.047 2.061 1.109 0 2.046-.937 2.046-2.03zm-.829 0c0 .64-.562 1.187-1.218 1.187a1.22 1.22 0 01-1.22-1.22c0-.655.548-1.202 1.204-1.202.688 0 1.234.547 1.234 1.234zm0 0"/></symbol><symbol overflow="visible" id="n"><path d="M0-5.844h-4.75c-1.047 0-1.719.782-1.719 1.985 0 .937.36 1.546 1.235 2.093h-1.047v.922H0v-1h-3.469c-1.281 0-2.125-.687-2.125-1.703 0-.797.485-1.297 1.235-1.297H0zm0 0"/></symbol><symbol overflow="visible" id="o"><path d="M0-5.781h-6.281v1h3.468c1.282 0 2.11.672 2.11 1.703 0 .797-.469 1.297-1.235 1.297H-6.28v1h4.75c1.047 0 1.718-.781 1.718-2 0-.922-.328-1.516-1.156-2.11H0zm0 0"/></symbol><symbol overflow="visible" id="p"><path d="M0-9.125h-4.719c-1.125 0-1.75.625-1.75 1.813 0 .828.25 1.343.953 1.921-.671.375-.953.875-.953 1.688 0 .844.313 1.406 1.063 1.937h-.875v.907H0v-.985h-3.953c-.906 0-1.64-.672-1.64-1.484 0-.735.452-1.156 1.265-1.156H0v-1h-3.953c-.906 0-1.64-.672-1.64-1.485 0-.734.468-1.156 1.265-1.156H0zm0 0"/></symbol><symbol overflow="visible" id="q"><path d="M-3.219-6.281c-2.031 0-3.25 1.031-3.25 2.687 0 .875.328 1.485 1.032 1.953H-8.75v1H0v-.906h-.906c.734-.484 1.094-1.11 1.094-2 0-1.656-1.36-2.734-3.407-2.734zm.063 1.047c1.422 0 2.406.75 2.406 1.843 0 1.047-.969 1.75-2.39 1.75-1.485 0-2.438-.703-2.391-1.75 0-1.125.968-1.843 2.375-1.843zm0 0"/></symbol><symbol overflow="visible" id="r"><path d="M-2.86-6.156c-.906 0-1.484.078-1.953.25-1.03.406-1.656 1.375-1.656 2.547 0 1.75 1.297 2.875 3.36 2.875 2.062 0 3.296-1.094 3.296-2.86 0-1.437-.828-2.422-2.093-2.687v1.015c.828.282 1.156.844 1.156 1.641 0 1.047-.672 1.828-2.11 1.844zm-.89 1.062s.047 0 .078.016v3.531c-1.11-.078-1.875-.797-1.875-1.797 0-.984.813-1.75 1.797-1.75zm0 0"/></symbol><symbol overflow="visible" id="s"><path d="M-5.406-3.86h-1.032c-.015.172-.03.266-.03.391 0 .656.39 1.14 1.327 1.719h-1.14v.906H0v-1h-3.266c-1.421 0-2.125-.453-2.14-2.015zm0 0"/></symbol><symbol overflow="visible" id="u"><path d="M-3.094-6.125c-2.172 0-3.375 1.047-3.375 2.86C-6.469-1.5-5.25-.438-3.14-.438c2.11 0 3.329-1.047 3.329-2.844 0-1.766-1.22-2.844-3.282-2.844zm-.015 1.047c1.484 0 2.359.703 2.359 1.797 0 1.125-.875 1.812-2.39 1.812-1.516 0-2.407-.687-2.407-1.812s.875-1.797 2.438-1.797zm0 0"/></symbol><symbol overflow="visible" id="t"><path d="M-5.469-3.094h-.812v1.047h-.985c-.421 0-.64-.25-.64-.703 0-.078 0-.125.015-.344h-.828c-.047.219-.062.36-.062.563 0 .922.531 1.469 1.422 1.469h1.078v.843h.812v-.844H0v-.984h-5.469zm0 0"/></symbol><symbol overflow="visible" id="v"><path d="M2.61-5.938h-8.891v.891h.828c-.656.469-1.016 1.172-1.016 2 0 1.656 1.313 2.735 3.39 2.735C-1.03-.313.189-1.345.189-3c0-.875-.313-1.469-1-1.938H2.61zm-5.72 1c1.438 0 2.36.688 2.36 1.75 0 1.094-.938 1.829-2.39 1.829-1.454 0-2.391-.735-2.391-1.829 0-1.078.953-1.75 2.422-1.75zm0 0"/></symbol><symbol overflow="visible" id="w"><path d="M0-1.844h-6.281v1H0zm-7.234-.125h-1.25v1.25h1.25zm0 0"/></symbol><symbol overflow="visible" id="x"><path d="M-1.766-5.516c-.937 0-1.406.532-1.703 1.782l-.234.968c-.188.813-.453 1.157-.89 1.157-.579 0-.954-.516-.954-1.329 0-.812.344-1.234 1.016-1.265V-5.25c-1.235 0-1.938.828-1.938 2.281 0 1.453.75 2.406 1.922 2.406.984 0 1.453-.5 1.813-2l.218-.921c.172-.704.375-.985.829-.985.593 0 .937.594.937 1.469 0 .906-.203 1.406-1.172 1.531v1.063c1.453-.047 2.11-.86 2.11-2.516 0-1.578-.735-2.594-1.954-2.594zm0 0"/></symbol><symbol overflow="visible" id="y"><path d="M-5.047-2.297H-6.28v1.235h1.234zm5.234 0H-1.25v1.25H0v-.719h.219c.828 0 1.062.157 1.093.72h.454c0-.845-.547-1.25-1.579-1.25zm0 0"/></symbol><symbol overflow="visible" id="z"><path d="M-3.078-6.281c-2.125 0-3.39 1.031-3.39 2.703 0 .86.39 1.531 1.124 2h-.937v.922h8.89v-1H-.75c.64-.532.938-1.11.938-1.938 0-1.61-1.266-2.687-3.266-2.687zm-.031 1.047c1.421 0 2.359.734 2.359 1.828 0 1.047-.875 1.75-2.344 1.75-1.484 0-2.437-.703-2.437-1.75 0-1.11.922-1.828 2.422-1.828zm0 0"/></symbol><symbol overflow="visible" id="A"><path d="M-3.688-6.188H-4.5v5.375h.813zm2.188 0h-.813v5.375h.813zm0 0"/></symbol><symbol overflow="visible" id="B"><path d="M-4.453-6.11c-2.656 0-4.063.923-4.063 2.876 0 1.609 1.157 2.78 2.829 2.78 1.578 0 2.656-1.077 2.656-2.624 0-.797-.297-1.39-.953-1.938C-1.906-5-.75-4.328-.75-3.125c0 .75-.469 1.266-1.297 1.438v1.046C-.64-.844.188-1.75.188-3.047c0-2-1.704-3.062-4.641-3.062zM-5.72-4.952c1.047 0 1.75.734 1.75 1.766 0 1.015-.656 1.656-1.797 1.656-1.093 0-1.812-.719-1.812-1.703 0-.985.766-1.72 1.86-1.72zm0 0"/></symbol><symbol overflow="visible" id="C"><path d="M-4.094-6.078c-2.953 0-4.422.937-4.422 2.781 0 1.828 1.5 2.781 4.36 2.781 2.86 0 4.343-.953 4.343-2.78 0-1.798-1.484-2.782-4.28-2.782zM-4.187-5c2.406 0 3.484.547 3.484 1.719 0 1.125-1.125 1.687-3.453 1.687s-3.422-.562-3.422-1.703c0-1.14 1.11-1.703 3.39-1.703zm0 0"/></symbol><symbol overflow="visible" id="D"><path d="M-6.14-4.438c-1.173 0-2.079.891-2.079 2.047 0 1.125.922 2.047 2.047 2.047a2.07 2.07 0 002.063-2.062c0-1.11-.938-2.031-2.032-2.031zm-.016.829c.656 0 1.203.546 1.203 1.203 0 .672-.563 1.234-1.219 1.234a1.217 1.217 0 01-1.203-1.219 1.2 1.2 0 011.219-1.218zm-2.36-4.485v.781l8.75 4.75v-.796zm6.72-2.219a2.047 2.047 0 00-.031 4.094c1.124 0 2.061-.922 2.061-2.047 0-1.109-.937-2.046-2.03-2.046zm0 .829c.64 0 1.187.562 1.187 1.218a1.22 1.22 0 01-1.22 1.22A1.214 1.214 0 01-3.03-8.25c0-.688.547-1.234 1.234-1.234zm0 0"/></symbol><clipPath id="a"><path d="M82 71h585v287.559H82zm0 0"/></clipPath></defs><path fill="#fff" d="M0 0h720v432H0z"/><g clip-path="url(#a)"><path d="M82.398 71.707l11.68 6.984 5.844 3.493 5.84 3.496 17.52 10.476 5.84 3.496 17.519 10.477 5.84 3.496 11.68 6.984 5.839 3.496 11.68 6.985 5.84 3.496 11.68 6.984 5.84 3.496 5.839 3.493 5.84 3.496 5.84 3.492 11.68 6.992 5.84 3.492 5.843 3.496 11.68 6.993 5.84 3.492 11.68 6.992 5.839 3.5 11.68 6.992 5.84 3.5 5.84 3.496 29.199 17.5 23.359 14.016 11.68 7.015 5.84 3.512 5.84 3.508 5.84 3.516 5.843 3.515 5.84 3.516 5.84 3.52 11.68 7.046 5.84 3.528 5.839 3.53 5.84 3.536 11.68 7.086 5.84 3.55 5.84 3.555L462 299.5l5.84 3.57 5.84 3.575 5.84 3.585 5.84 3.594 5.84 3.602 5.84 3.617 5.839 3.625 5.84 3.644 5.84 3.657 5.84 3.672 5.84 3.695 5.84 3.715 5.843 3.738 5.84 3.766 5.84 3.797 5.84 3.828 5.84 3.87 5.84 3.91 5.839 3.962 5.84 4.02 5.84 4.085 5.84 4.16 5.84 4.25 5.84 4.356 5.839 4.48 5.84 4.63 5.84 4.816 5.84 5.05 5.84 5.348 5.84 5.742 5.84 6.305 5.839 7.149 5.84 8.585 5.84 11.762 5.84 101.524" fill="none" stroke-width=".75" stroke-linecap="round" stroke-linejoin="round" stroke="#000" stroke-miterlimit="10"/></g><path d="M59.04 358.559h630.722V59.039H59.039zm0 0" fill="none" stroke-width=".75" stroke-linecap="round" stroke-linejoin="round" stroke="#000" stroke-miterlimit="10"/><use xlink:href="#b" x="306.398" y="413.058"/><use xlink:href="#c" x="317.245" y="413.058"/><use xlink:href="#d" x="323.917" y="413.058"/><use xlink:href="#e" x="329.796" y="413.058"/><use xlink:href="#f" x="336.468" y="413.058"/><use xlink:href="#f" x="339.804" y="413.058"/><use xlink:href="#g" x="346.476" y="413.058"/><use xlink:href="#h" x="353.147" y="413.058"/><use xlink:href="#i" x="359.819" y="413.058"/><use xlink:href="#f" x="366.491" y="413.058"/><use xlink:href="#j" x="369.827" y="413.058"/><use xlink:href="#g" x="375.826" y="413.058"/><use xlink:href="#f" x="382.498" y="413.058"/><use xlink:href="#j" x="389.17" y="413.058"/><use xlink:href="#i" x="395.169" y="413.058"/><use xlink:href="#f" x="401.841" y="413.058"/><use xlink:href="#k" x="408.513" y="413.058"/><use xlink:href="#l" x="411.849" y="413.058"/><use xlink:href="#c" x="415.783" y="413.058"/><use xlink:href="#k" x="422.455" y="413.058"/><use xlink:href="#m" x="425.791" y="413.058"/><use xlink:href="#g" x="428.454" y="413.058"/><use xlink:href="#f" x="435.126" y="413.058"/><use xlink:href="#n" x="12.737" y="281.301"/><use xlink:href="#o" x="12.737" y="274.629"/><use xlink:href="#p" x="12.737" y="267.957"/><use xlink:href="#q" x="12.737" y="257.962"/><use xlink:href="#r" x="12.737" y="251.29"/><use xlink:href="#s" x="12.737" y="244.618"/><use xlink:href="#t" x="12.737" y="240.623"/><use xlink:href="#u" x="12.737" y="237.287"/><use xlink:href="#t" x="12.737" y="230.615"/><use xlink:href="#t" x="12.737" y="227.279"/><use xlink:href="#v" x="12.737" y="223.943"/><use xlink:href="#o" x="12.737" y="217.212"/><use xlink:href="#r" x="12.737" y="210.54"/><use xlink:href="#s" x="12.737" y="203.868"/><use xlink:href="#w" x="12.737" y="199.873"/><use xlink:href="#r" x="12.737" y="197.21"/><use xlink:href="#x" x="12.737" y="190.538"/><use xlink:href="#y" x="12.737" y="184.539"/><use xlink:href="#t" x="12.737" y="181.203"/><use xlink:href="#t" x="12.737" y="177.867"/><use xlink:href="#z" x="12.737" y="174.531"/><use xlink:href="#A" x="12.737" y="167.859"/><use xlink:href="#B" x="12.737" y="160.852"/><use xlink:href="#C" x="12.737" y="154.18"/><use xlink:href="#D" x="12.737" y="147.508"/><path d="M82.398 358.559h438m-438 0v7.203m146-7.203v7.203m146-7.203v7.203m146-7.203v7.203" fill="none" stroke-width=".75" stroke-linecap="round" stroke-linejoin="round" stroke="#000" stroke-miterlimit="10"/><use xlink:href="#E" x="64.898" y="384.257"/><use xlink:href="#F" x="71.57" y="384.257"/><use xlink:href="#E" x="74.906" y="384.257"/><use xlink:href="#G" x="81.578" y="384.257"/><use xlink:href="#H" x="88.25" y="384.257"/><use xlink:href="#E" x="214.398" y="384.257"/><use xlink:href="#F" x="221.07" y="384.257"/><use xlink:href="#G" x="224.406" y="384.257"/><use xlink:href="#H" x="231.078" y="384.257"/><use xlink:href="#G" x="365.398" y="384.257"/><use xlink:href="#H" x="372.07" y="384.257"/><use xlink:href="#G" x="507.898" y="384.257"/><use xlink:href="#E" x="514.57" y="384.257"/><use xlink:href="#H" x="521.242" y="384.257"/><path d="M59.04 347.465V85.508m0 261.957h-7.2m7.2-87.317h-7.2m7.2-87.32h-7.2m7.2-87.32h-7.2" fill="none" stroke-width=".75" stroke-linecap="round" stroke-linejoin="round" stroke="#000" stroke-miterlimit="10"/><use xlink:href="#G" x="37.641" y="351.741"/><use xlink:href="#G" x="30.641" y="264.425"/><use xlink:href="#E" x="37.313" y="264.425"/><use xlink:href="#G" x="23.641" y="177.104"/><use xlink:href="#E" x="30.313" y="177.104"/><use xlink:href="#E" x="36.984" y="177.104"/><use xlink:href="#G" x="17.641" y="89.784"/><use xlink:href="#E" x="24.313" y="89.784"/><use xlink:href="#E" x="30.984" y="89.784"/><use xlink:href="#E" x="37.656" y="89.784"/></svg>